<?xml version="1.0" standalone="no"?>
<!DOCTYPE svg PUBLIC "-//W3C//DTD SVG 20010904//EN"
 "http://www.w3.org/TR/2001/REC-SVG-20010904/DTD/svg10.dtd">
<svg version="1.0" xmlns="http://www.w3.org/2000/svg"
 width="300.000000pt" height="144.000000pt" viewBox="0 0 300.000000 144.000000"
 preserveAspectRatio="xMidYMid meet">

<g transform="translate(0.000000,144.000000) scale(0.100000,-0.100000)"
fill="#000000" stroke="none">
<path d="M0 720 c0 -396 3 -720 8 -720 4 0 45 7 91 15 119 21 471 61 711 82
292 25 1088 25 1380 0 240 -21 592 -61 711 -82 46 -8 87 -15 92 -15 4 0 7 324
7 720 l0 720 -1500 0 -1500 0 0 -720z m2910 6 l0 -623 -52 8 c-121 20 -488 60
-688 76 -302 24 -1038 24 -1340 0 -200 -16 -567 -56 -687 -76 l-53 -8 0 623 0
624 1410 0 1410 0 0 -624z"/>
<path d="M840 1093 c-64 -23 -162 -123 -183 -187 -40 -116 -11 -263 67 -340
113 -113 311 -128 459 -34 l47 30 0 139 0 139 -135 0 -135 0 0 -60 0 -60 70 0
70 0 0 -45 c0 -40 -3 -46 -32 -61 -43 -23 -142 -23 -184 -1 -119 62 -139 242
-36 329 67 56 147 60 232 12 l45 -26 42 48 c48 56 46 62 -31 102 -43 22 -66
26 -151 29 -73 2 -112 -2 -145 -14z"/>
<path d="M332 793 l3 -308 68 -3 67 -3 0 311 0 310 -70 0 -70 0 2 -307z"/>
<path d="M1400 789 l0 -311 173 4 c167 3 174 4 231 33 191 96 231 354 77 498
-77 72 -132 87 -321 87 l-160 0 0 -311z m326 172 c23 -10 54 -36 70 -56 23
-31 29 -49 32 -104 2 -54 -1 -73 -20 -105 -41 -70 -96 -95 -210 -96 l-58 0 0
190 0 190 73 0 c49 0 85 -6 113 -19z"/>
<path d="M2130 789 l0 -310 203 3 c187 3 205 5 244 25 48 26 69 53 83 105 20
73 -10 139 -86 185 -18 11 -18 12 4 28 55 40 69 136 29 196 -12 19 -42 44 -67
57 -41 20 -57 22 -227 22 l-183 0 0 -311z m338 175 c15 -10 22 -25 22 -49 0
-49 -35 -65 -140 -65 l-80 0 0 65 0 65 88 0 c63 0 94 -4 110 -16z m11 -235
c56 -20 68 -74 25 -108 -23 -18 -41 -21 -130 -21 l-104 0 0 70 0 70 89 0 c48
0 102 -5 120 -11z"/>
</g>
</svg>
